<?xml version="1.0" encoding="utf-8"?>
<!-- Generator: Adobe Illustrator 24.2.3, SVG Export Plug-In . SVG Version: 6.00 Build 0)  -->
<svg version="1.1" id="Layer_1" xmlns="http://www.w3.org/2000/svg" xmlns:xlink="http://www.w3.org/1999/xlink" x="0px" y="0px"
	 viewBox="0 0 841.89 595.28" style="enable-background:new 0 0 841.89 595.28;" xml:space="preserve">
<style type="text/css">
	.st0{fill:#f19d0c;}
	<!-- .st0{fill:#fff;} -->
	<!-- .st0{fill:#b35650;} -->
	<!-- .st0{fill:#C62C18;} -->
	.st1{fill:#fff;}
	<!-- .st1{fill:#b35650;} -->
	<!-- .st1{fill:#f19d0c;} -->
</style>
<g>
	<g>
		<path class="st0" d="M283.79,351.47c-0.63-0.91-1.36-1.76-2.05-2.63c-7.07-8.9-13.67-18.09-16.85-27.52
			c-5.21-14.11-12.88-24.87-21.76-34.79c-2.31-2.58-5.25-4.8-8.29-6.47c-4.11-2.24-8.31-0.89-10.18,3.39
			c-1.63,3.73-2.98,7.85-3.2,11.87c-0.97,17.04,5.88,30.71,19.26,41.05c10.71,8.26,22.41,15.28,31.31,25.76
			c1.37,1.62,3.03,1.7,4.77,0.18c1.97-1.73,4.14-3.24,6.18-4.89C285.42,355.45,285.6,354.08,283.79,351.47z"/>
		<path class="st0" d="M256.63,260.18c-3.74,5.87-8.47,10.94-13.76,15.49c-0.4,0.34-1.46,0.18-2.07-0.07
			c-0.92-0.38-1.73-1.03-2.57-1.59c-7.17-4.76-13.89-2.42-18.58,4.35c-2.39,3.44-3.17,7.98-4.79,11.98
			c-0.4,0.99-1.11,2.37-1.94,2.59c-6.9,1.84-13.86,3.44-21.01,5.17c-0.24-1.25-0.43-1.72-0.4-2.17c0.57-9.95,2.96-19.38,8.13-27.98
			c8.74-14.54,25.33-21.63,40.45-17.33C245.88,252.28,253.25,256.5,256.63,260.18z"/>
		<path class="st0" d="M298.01,436.4c3.73-5.73,7.42-11.51,11.27-17.18c0.36-0.53,1.74-0.73,2.52-0.55
			c10.24,2.36,17.53-3.44,17.67-14.08c0.01-0.73,0.48-1.63,1.03-2.14c0.55-0.51,1.46-0.64,2.23-0.9c5.71-2,11.42-4,17.09-5.99
			c5.27,10.62,0.16,28.37-10.6,37.47C327.55,442.87,309.2,444.46,298.01,436.4z"/>
		<path class="st0" d="M300.8,383.45c2.9-1.19,5.87-0.61,7.93,1.89c4.09,4.98,8.12,10,12.03,15.12c2.39,3.13,1.74,7.42-1.21,9.76
			c-2.99,2.38-7.26,2.1-9.78-0.97c-4.09-4.98-8.1-10.04-11.91-15.24C295.02,390.12,296.54,385.19,300.8,383.45z"/>
		<path class="st0" d="M190.92,302.51c8.21-1.68,15.6-3.19,22.89-4.68c0.6,4.08,1.28,8.35,1.8,12.64c0.07,0.59-0.44,1.58-0.97,1.88
			c-6.3,3.59-12.66,7.08-19.96,11.13C193.34,316,192.13,309.25,190.92,302.51z"/>
		<path class="st0" d="M196.4,327.41c7.25-3.92,13.81-7.46,20.61-11.13c1.89,3.75,3.76,7.48,5.77,11.47
			c-6.08,4.55-12.09,9.06-18.59,13.92C201.5,336.75,199.01,332.2,196.4,327.41z"/>
		<path class="st0" d="M206.9,345.14c6.48-4.87,12.35-9.27,18.4-13.81c2.99,3.07,5.9,6.07,8.99,9.25
			c-5.6,4.44-11.1,8.84-16.66,13.14c-0.43,0.33-1.65,0.27-2.04-0.1C212.72,350.96,209.99,348.19,206.9,345.14z"/>
		<path class="st0" d="M270.29,273.25c-6.11,4.92-11.6,9.33-17.3,13.91c-2.5-2.6-4.84-5.04-7.19-7.48
			c4.86-5.43,9.65-10.8,14.84-16.6C263.66,266.25,266.85,269.62,270.29,273.25z"/>
		<path class="st0" d="M269.36,312.86c-1.91-3.69-3.62-6.98-5.44-10.5c5.82-4.38,11.52-8.67,17.74-13.35
			c1.68,3.07,3.32,5.91,4.76,8.84c0.23,0.46-0.18,1.61-0.65,1.99C280.43,304.16,275.03,308.38,269.36,312.86z"/>
		<path class="st0" d="M219.97,357.51c4.04-3.19,7.64-6.08,11.28-8.91c2.22-1.73,4.56-4.79,6.74-4.7c2.58,0.11,5.04,2.97,7.53,4.67
			c0.48,0.32,0.87,0.77,1.52,1.35c-5.37,4.27-10.54,8.43-15.81,12.48c-0.55,0.42-1.79,0.49-2.42,0.16
			C225.97,361.08,223.23,359.4,219.97,357.51z"/>
		<path class="st0" d="M288.79,303.09c1.16,3.59,2.23,6.72,3.15,9.89c0.15,0.52-0.12,1.46-0.53,1.8c-5.17,4.19-10.4,8.3-16.11,12.82
			c-1.44-3.34-2.76-6.26-3.93-9.23c-0.19-0.48,0.07-1.48,0.47-1.8C277.32,312.14,282.86,307.78,288.79,303.09z"/>
		<path class="st0" d="M272.91,276.75c2.07,2.85,4.07,5.58,6.28,8.62c-5.94,4.48-11.7,8.82-17.72,13.36
			c-1.99-2.74-3.85-5.31-5.85-8.05C261.38,286.04,267,281.51,272.91,276.75z"/>
		<path class="st0" d="M297.88,329.13c0.39-0.32,0.65-1.32,0.44-1.77c-1.35-2.89-2.83-5.71-4.43-8.85
			c-5.43,4.28-10.65,8.38-16.24,12.79c2.17,3.08,4.12,5.85,6.27,8.89C288.76,336.39,293.35,332.81,297.88,329.13z"/>
		<path class="st0" d="M259.58,359.46c-5.01,3.97-9.56,7.61-14.19,11.15c-0.44,0.34-1.54,0.27-2.08-0.05
			c-2.77-1.62-5.45-3.39-8.51-5.32c5.15-4.09,10.13-8.09,15.2-11.98c0.43-0.33,1.6-0.2,2.09,0.17
			C254.5,355.23,256.79,357.19,259.58,359.46z"/>
		<path class="st0" d="M294.05,434.43c-2.83-2.99-5.31-5.6-8.04-8.49c5.43-5.37,10.62-10.52,16.04-15.88
			c1.32,1.6,2.55,2.91,3.54,4.38c0.34,0.51,0.4,1.61,0.08,2.11C301.98,422.34,298.21,428.07,294.05,434.43z"/>
		<path class="st0" d="M323.45,393.26c6.34-3.95,12.45-7.76,18.97-11.83c2.13,3.1,4.2,6.11,6.59,9.59
			c-2.26,0.85-3.98,1.52-5.73,2.15c-4.07,1.47-8.24,2.71-12.2,4.44c-2.63,1.14-4.31,0.82-5.66-1.67
			C324.96,395.08,324.27,394.35,323.45,393.26z"/>
		<path class="st0" d="M283.45,422.27c-2.19-2.78-4.22-5.35-6.46-8.18c5.85-4.62,11.51-9.07,17.02-13.43
			c0.46,0.17,0.7,0.19,0.82,0.32c4.97,5.21,4.97,5.21-0.14,10.24C291.04,414.81,287.38,418.4,283.45,422.27z"/>
		<path class="st0" d="M315.65,383.57c5.99-4.71,11.66-9.16,17.51-13.76c2.19,2.79,4.15,5.29,6.42,8.17
			c-6.41,3.99-12.6,7.83-18.95,11.78C318.92,387.63,317.43,385.78,315.65,383.57z"/>
		<path class="st0" d="M330.43,366.35c-5.96,4.7-11.57,9.13-17.17,13.55c-0.4-0.27-0.68-0.4-0.88-0.61c-3.6-3.81-3.49-3.71-0.15-7.6
			c3.02-3.52,5.79-7.26,8.61-10.95c1.77-2.32,2.86-2.52,4.79-0.37C327.24,362.14,328.65,364.1,330.43,366.35z"/>
		<path class="st0" d="M288.26,392.52c0.83,1.04,2.06,2.58,3.46,4.34c-5.85,4.61-11.5,9.07-17.46,13.76
			c-1.84-2.41-3.64-4.55-5.19-6.85c-0.95-1.41-0.47-2.74,1.15-3.44C276.1,397.75,281.99,395.22,288.26,392.52z"/>
		<path class="st0" d="M248.19,374.09c4.46-3.54,8.91-7.12,13.44-10.59c0.42-0.32,1.64-0.22,2.02,0.16
			c1.76,1.76,3.35,3.69,5.32,5.92c-3.05,2.86-5.68,5.79-8.77,8.12C255.99,380.87,252.57,379.73,248.19,374.09z"/>
		<path class="st0" d="M292.71,351.35c-2.25-2.85-4.04-5.12-6.06-7.68c4.87-3.85,9.55-7.56,14.39-11.38
			c0.97,1.44,1.78,2.58,2.51,3.76c2.04,3.32,1.93,5.74-1.09,8.32C299.51,346.89,296.15,348.93,292.71,351.35z"/>
	</g>
	<g>
		<g>
			<polygon class="st0" points="557.67,296.38 550.84,284.72 550.84,296.38 500.33,296.38 500.33,152.14 550.84,152.14 
				550.84,193.41 555.45,187.68 618.99,187.68 578.19,235.58 616.75,296.38 			"/>
		</g>
		<g>
			<polygon class="st0" points="317.15,296.38 311.61,272.84 306.2,296.38 258.43,296.38 229.07,158.46 281.35,158.46 
				285.38,180.49 290.2,158.46 332.91,158.46 337.91,180.97 342.03,158.46 394.22,158.46 364.95,296.38 			"/>
		</g>
		<g>
			<path class="st0" d="M408.15,297.94c-10.92,0-20.41-3.42-28.22-10.17c-8.21-7.09-12.54-16.53-12.54-27.31
				c0-8.78,2.37-16.43,6.94-22.62h-4.91v-12.09c0-12.02,5.31-22.27,15.37-29.65c9.04-6.63,20.39-9.99,33.75-9.99
				c13.66,0,24.87,3.61,33.33,10.73c8.89,7.48,13.7,18.09,13.91,30.68l0,37.54c0.11,7.69,1.48,10.96,2.06,12.01l1.53,2.74l0,16.56
				h-45.59l-0.62-1.14C418.61,297.02,413.58,297.94,408.15,297.94z"/>
		</g>
		<g>
			<rect x="457.53" y="152.21" class="st0" width="50.59" height="144.16"/>
		</g>
		<path class="st1" d="M339.07,241.87l13.04-71.32h27.18l-24.14,113.73h-28.43l-15.23-64.83l-14.92,64.83h-28.35L244,170.56h27.26
			l13.04,71.32l15.62-71.32h23.28L339.07,241.87z"/>
		<path class="st1" d="M430.95,284.29c-0.94-1.72-1.77-4.24-2.5-7.58c-4.84,6.09-11.61,9.14-20.31,9.14
			c-7.97,0-14.74-2.41-20.31-7.22c-5.57-4.82-8.36-10.87-8.36-18.16c0-9.16,3.38-16.09,10.16-20.78c6.77-4.69,16.61-7.03,29.52-7.03
			h8.12v-4.47c0-7.8-3.36-11.69-10.08-11.69c-6.25,0-9.37,3.09-9.37,9.26h-26.32c0-8.17,3.48-14.8,10.43-19.89
			c6.95-5.1,15.82-7.65,26.6-7.65c10.78,0,19.29,2.63,25.54,7.89c6.25,5.26,9.45,12.47,9.61,21.64v37.42
			c0.1,7.76,1.3,13.7,3.59,17.81v1.33H430.95z M414.47,267.1c3.28,0,6-0.7,8.16-2.11c2.16-1.41,3.71-2.99,4.65-4.76v-13.51h-7.65
			c-9.17,0-13.75,4.11-13.75,12.34c0,2.4,0.81,4.33,2.42,5.82C409.92,266.36,411.97,267.1,414.47,267.1z"/>
		<path class="st1" d="M496.02,284.29h-26.4V164.31h26.4V284.29z"/>
		<path class="st1" d="M546.17,252.81l-7.42,7.42v24.06h-26.32V164.23h26.32v63.74l2.66-3.52l19.84-24.68h31.56l-29.6,34.76
			l31.56,49.76H564.6L546.17,252.81z"/>
	</g>
	<g>
		<g>
			<polygon class="st0" points="323.13,424.77 323.13,332.2 289.62,332.2 289.62,286.85 408.86,286.85 408.86,332.2 374.73,332.2 
				374.73,424.77 			"/>
		</g>
		<g>
			<path class="st0" d="M408.72,426.33c-10.92,0-20.41-3.42-28.22-10.17c-8.21-7.09-12.54-16.53-12.54-27.31
				c0-8.78,2.37-16.43,6.94-22.62H370v-12.09c0-12.02,5.31-22.27,15.37-29.65c9.04-6.63,20.39-9.99,33.75-9.99
				c13.66,0,24.87,3.61,33.33,10.73c8.89,7.48,13.7,18.09,13.91,30.68l0,37.54c0.11,7.69,1.48,10.96,2.06,12.01l1.53,2.74l0,16.56
				h-45.59l-0.62-1.14C419.19,425.41,414.15,426.33,408.72,426.33z"/>
		</g>
		<g>
			<rect x="458.11" y="280.6" class="st0" width="50.59" height="144.16"/>
		</g>
		<g>
			<polygon class="st0" points="558.25,424.77 551.42,413.1 551.42,424.77 500.91,424.77 500.91,280.52 551.42,280.52 551.42,321.8 
				556.03,316.07 619.56,316.07 578.76,363.97 617.32,424.77 			"/>
		</g>
		<path class="st1" d="M396.77,320.11h-34.13v92.56h-27.42v-92.56h-33.51v-21.17h95.06V320.11z"/>
		<path class="st1" d="M431.53,412.67c-0.94-1.72-1.77-4.24-2.5-7.58c-4.84,6.09-11.61,9.14-20.31,9.14
			c-7.97,0-14.74-2.41-20.31-7.22c-5.57-4.82-8.36-10.87-8.36-18.16c0-9.16,3.38-16.09,10.16-20.78c6.77-4.69,16.61-7.03,29.52-7.03
			h8.12v-4.47c0-7.8-3.36-11.69-10.08-11.69c-6.25,0-9.37,3.09-9.37,9.26h-26.32c0-8.17,3.48-14.8,10.43-19.89
			c6.95-5.1,15.82-7.65,26.6-7.65c10.78,0,19.29,2.63,25.54,7.89c6.25,5.26,9.45,12.47,9.61,21.64v37.42
			c0.1,7.76,1.3,13.7,3.59,17.81v1.33H431.53z M415.05,395.49c3.28,0,6-0.7,8.16-2.11c2.16-1.41,3.71-2.99,4.65-4.76V375.1h-7.65
			c-9.17,0-13.75,4.11-13.75,12.34c0,2.4,0.81,4.33,2.42,5.82C410.49,394.75,412.55,395.49,415.05,395.49z"/>
		<path class="st1" d="M496.6,412.67h-26.4V292.7h26.4V412.67z"/>
		<path class="st1" d="M546.75,381.2l-7.42,7.42v24.06H513V292.62h26.32v63.74l2.66-3.52l19.84-24.68h31.56l-29.6,34.76l31.56,49.76
			h-30.15L546.75,381.2z"/>
		<g>
			<path class="st0" d="M376.39,336.94c4.9,0,4.91-7.62,0-7.62C371.49,329.32,371.48,336.94,376.39,336.94L376.39,336.94z"/>
		</g>
	</g>
	<g>
		<path class="st0" d="M301.47,276.8c0,3.54,0,7.08,0,10.61c0,4.21,3.7,8.24,8.05,8.05c4.36-0.2,8.05-3.54,8.05-8.05
			c0-3.54,0-7.08,0-10.61c0-4.21-3.7-8.24-8.05-8.05C305.16,268.95,301.47,272.29,301.47,276.8L301.47,276.8z"/>
	</g>
	<g>
		<path class="st0" d="M366.49,285.48c0.32,0.16,0.61,0.33,0.9,0.55c-0.54-0.42-1.09-0.84-1.63-1.26c0.33,0.27,0.61,0.57,0.88,0.9
			c-0.42-0.54-0.84-1.09-1.26-1.63c0.2,0.29,0.38,0.59,0.53,0.91c-0.27-0.64-0.54-1.28-0.81-1.92c0.16,0.4,0.27,0.79,0.34,1.21
			c0.29,1.86,2.15,3.9,3.7,4.81c1.73,1.01,4.27,1.44,6.2,0.81c1.95-0.63,3.83-1.84,4.81-3.7c0.27-0.64,0.54-1.28,0.81-1.92
			c0.38-1.43,0.38-2.85,0-4.28c-0.28-1.8-1.21-3.44-2.31-4.86c-1.11-1.43-2.36-2.72-4.03-3.52c-1.97-0.96-4.03-1.41-6.2-0.81
			c-1.87,0.51-3.89,1.96-4.81,3.7c-0.99,1.87-1.48,4.13-0.81,6.2C363.41,282.58,364.63,284.57,366.49,285.48L366.49,285.48z"/>
	</g>
	<g>
		<path class="st0" d="M400.71,293.21c-5.06,10.76-0.36,21.57,11.1,25.29c6.54,2.12,13.8,2.61,20.57,3.71
			c5.09,0.83,14.97,0.92,17.88,5.97c4,6.95,14.98,3.88,15-4.06c0.02-7.19,0.34-14.46,0.06-21.64c-0.15-3.95-0.54-7.62-3.99-10.16
			c-4.35-3.2-11.27-1.96-16.3-1.88c-5.9,0.1-12.03-0.25-17.9,0.44c-7.73,0.91-16.08,6.99-11.79,15.73
			c4.74,9.66,22.47,9.35,31.41,9.62c10.36,0.32,10.35-15.78,0-16.1c-3.92-0.12-7.7-0.33-11.57-1.02c-1.64-0.29-7.42-2.97-5.94-0.63
			c0.27,2.07,0.54,4.13,0.81,6.2c-0.43,3.14-1.2,1.48,2.22,2.07c2.49,0.43,5.46-0.09,7.97-0.14c4.43-0.08,9.72-0.95,14.07-0.22
			c-1.6-1.23-3.21-2.47-4.81-3.7c-0.34-2.99-0.44-2.51-0.29,1.44c-0.01,2.22-0.01,4.44-0.02,6.66c-0.01,4.44-0.03,8.88-0.04,13.32
			c5-1.35,10-2.71,15-4.06c-4.08-7.09-11.3-10.27-19.06-11.91c-2.36-0.5-31.28-5.13-30.49-6.81
			C418.99,292.02,405.12,283.84,400.71,293.21L400.71,293.21z"/>
	</g>
	<g>
		<g>
			<path class="st0" d="M440.2,324.2c-3.54,0-6.48-1-8.73-2.96c-2.34-2.05-3.58-4.85-3.58-8.12c0-1.89,0.5-3.64,1.47-5.2
				c0.55-0.88,1.35-1.78,2.42-2.74c-0.19-0.36-0.36-0.71-0.51-1.05c-0.61-1.37-0.91-2.82-0.91-4.29c0-3.1,1.1-5.78,3.17-7.76
				c2.06-1.96,4.72-2.96,7.91-2.96c2.93,0,5.42,0.94,7.4,2.78c2.02,1.88,3.08,4.34,3.08,7.11c0,1.26-0.26,2.82-1.14,4.47h6.53v3.18
				c0,3.36-0.62,6.29-1.85,8.75l7.31,8.39h-15.63l-0.65-0.73c-0.55,0.22-1.11,0.41-1.67,0.56
				C443.45,324.01,441.89,324.2,440.2,324.2z"/>
		</g>
		<g>
			<path class="st1" d="M435.97,305.91c-0.75-1.07-1.35-2.1-1.77-3.07c-0.43-0.97-0.64-1.98-0.64-3.01c0-2.25,0.73-4.07,2.19-5.46
				c1.46-1.39,3.36-2.08,5.71-2.08c2.11,0,3.85,0.64,5.23,1.93c1.38,1.28,2.07,2.88,2.07,4.78c0,2.38-1.31,4.49-3.93,6.33
				l-1.46,1.02l4.3,4.93c0.7-1.41,1.05-2.95,1.05-4.62h5.43c0,3.77-0.87,6.79-2.61,9.07l4.26,4.89h-7.21l-1.3-1.48
				c-1.07,0.64-2.17,1.11-3.29,1.42c-1.12,0.31-2.38,0.46-3.79,0.46c-2.76,0-4.97-0.73-6.63-2.18c-1.66-1.45-2.49-3.36-2.49-5.72
				c0-1.29,0.33-2.46,0.99-3.51c0.66-1.05,1.94-2.27,3.84-3.66L435.97,305.91z M440.63,316.04c1.12,0,2.2-0.26,3.22-0.79l-5.02-5.71
				l-0.17,0.12c-0.73,0.9-1.09,1.9-1.09,3.03c0,0.93,0.29,1.73,0.88,2.38C439.03,315.71,439.76,316.04,440.63,316.04z
				 M439.13,299.76c0,0.9,0.49,1.98,1.46,3.26l1.28-0.81c0.59-0.38,1.02-0.78,1.28-1.19c0.27-0.41,0.4-0.93,0.4-1.55
				c0-0.59-0.2-1.1-0.61-1.53c-0.41-0.43-0.91-0.65-1.52-0.65c-0.72,0-1.28,0.23-1.69,0.68
				C439.33,298.42,439.13,299.02,439.13,299.76z"/>
		</g>
	</g>
	<g>
		<path class="st1" d="M578.04,296.28c6.83,2.63,15.63,4.53,21.81,8.41c4.54,2.85,4.15,9.68,11.03,10.61
			c13.92,1.88,12.12-18.39,7.34-25.61c-4.12-6.23-15.46-4.4-15,4.06c0.33,6.08,3.52,18.46-5.16,19.62
			c-2.68,0.36-20.88-4.41-15.15-8.92c-4.21-0.54-8.43-1.09-12.64-1.63c-1.15-2-0.49-0.32-0.41,1.12c0.1,1.74,0.36,3.27,1.15,4.82
			c1.38,2.72,3.93,4.6,6.9,5.17c3.25,0.62,6.53-0.38,9.7-1.07c2.23-0.49,4.45-0.97,6.68-1.46c0.89-0.19,1.78-0.39,2.67-0.58
			c3.51,0.04,3.63-1,0.34-3.1c0.27-2.07,0.54-4.13,0.81-6.2c-0.23,0.53-0.47,1.07-0.7,1.6c4.21-0.54,8.43-1.09,12.64-1.63
			c-6.59-7.45-14.24-15.21-24.34-17.42c-4.15-0.91-8.83-0.97-12.18,1.98c-3.96,3.48-3.28,8.01-3.71,12.74
			c-0.95,10.31,15.15,10.25,16.1,0c0.18-1.96,0.07-3.85,0.29-5.8c-0.79,1.9-1.57,3.79-2.36,5.69c0.35-0.42,0.71-0.83,1.06-1.25
			c-1.9,0.79-3.79,1.57-5.69,2.36c8.03-0.99,14.71,7.74,19.44,13.08c3.16,3.57,10.61,3.01,12.64-1.63
			c3.13-7.17,0.64-15.32-7.87-16.97c-3.63-0.7-7.23,0.27-10.77,1.02c-2.67,0.57-5.34,1.17-8.01,1.75c-1.58,0.35-7.33,0.09-3.8,1.02
			c1.6,1.23,3.21,2.47,4.81,3.7c0.15,1.71,0.24,1.91,0.29,0.6c0.1-0.79,0.1-1.59,0-2.38c-0.2-1.99-0.8-3.54-1.8-5.28
			c-2.83-4.92-8.66-4.76-12.64-1.63c-6.23,4.89-6.85,15.79-3.48,22.59c3.86,7.79,15.13,11.83,23.13,13.29
			c8.33,1.52,17.44-0.43,23.32-6.85c7.05-7.7,5.34-18.85,4.82-28.34c-5,1.35-10,2.71-15,4.06c1.84,2.78,0.53,4.08,3.57,2.63
			c2.71,0,5.42,0,8.12,0c1.8,1.01,1.12,1.15,0.87-0.81c-0.17-1.3-1.43-3.31-2.28-4.36c-2.03-2.54-4.8-3.85-7.75-5.05
			c-8.11-3.32-16.36-6.31-24.53-9.46C572.65,277.02,568.46,292.58,578.04,296.28L578.04,296.28z"/>
	</g>
	<g id="_x31_uuQFp_40_">
		<g>
			<path class="st0" d="M647.63,303.35c-1.79-12.06-11.18-22.8-22.92-25.68c-14.61-3.57-29.28-6.89-43.92-10.29
				c-1.46-0.33-2.98-0.58-4.49-0.68c-18.66-1.28-34.37,13.53-34.28,32.22c0.08,13.67,9.09,26.07,22.21,30.1
				c5.15,1.58,10.47,2.61,15.7,3.89c0.51,0.12,1.03,0.25,1.69,0.4c-0.15,0.66-0.28,1.17-0.39,1.67c-1.1,4.7-2.22,9.38-3.26,14.08
				c-0.19,0.84-0.29,1.81-0.1,2.63c0.6,2.51,3.43,3.46,5.8,2c7.37-4.53,14.74-9.08,22.08-13.67c0.91-0.55,1.7-0.7,2.74-0.49
				c2.1,0.4,4.22,0.8,6.36,0.84C635.24,340.92,650.62,323.53,647.63,303.35z M589.28,310.5c-3.43,5.55-9.18,7.89-15.41,6.38
				c-1.87-0.45-3.05-2.22-2.7-4.03c0.34-1.81,2.09-3.17,3.96-2.69c4.71,1.2,8.06-1.01,10-6.86c-2.63-0.61-5.15-1.2-7.67-1.79
				c-2.17-0.51-2.93-1.64-2.45-3.8c0.72-3.22,1.47-6.43,2.25-9.64c0.52-2.17,1.7-2.86,3.84-2.38c3.25,0.76,6.51,1.52,9.76,2.29
				c2.04,0.48,3.11,1.81,3.05,3.93C593.72,298.45,592.8,304.82,589.28,310.5z M612.52,315.79c-3.32,5.52-9.27,8.01-15.5,6.48
				c-1.84-0.44-3-2.11-2.72-3.88c0.31-1.9,1.98-3.34,3.85-2.84c5.46,1.44,8.56-1.98,10.11-6.86c-2.34-0.54-4.67-1.09-7.01-1.63
				c-3.12-0.73-3.65-1.58-2.92-4.74c0.69-2.95,1.36-5.91,2.07-8.86c0.52-2.18,1.66-2.86,3.83-2.37c3.31,0.76,6.61,1.53,9.9,2.31
				c1.74,0.41,2.97,1.76,2.94,3.5C616.93,303.53,616.02,309.97,612.52,315.79z"/>
		</g>
	</g>
</g>
</svg>
